<svg xmlns="http://www.w3.org/2000/svg" viewBox="0 0 480 120" width="480" height="120">
    <defs>
        <linearGradient id="bg" x1="0" y1="0" x2="1" y2="1">
            <stop offset="0%" stop-color="#0e1018"/>
            <stop offset="100%" stop-color="#07070d"/>
        </linearGradient>
        <linearGradient id="gold" x1="0" y1="0" x2="0" y2="1">
            <stop offset="0%" stop-color="#f4d96e"/>
            <stop offset="50%" stop-color="#d4af37"/>
            <stop offset="100%" stop-color="#a07d1f"/>
        </linearGradient>
        <linearGradient id="shine" x1="0" y1="0" x2="0" y2="1">
            <stop offset="0%" stop-color="#fff8d8" stop-opacity="0.5"/>
            <stop offset="60%" stop-color="#fff8d8" stop-opacity="0"/>
        </linearGradient>
        <linearGradient id="text" x1="0" y1="0" x2="0" y2="1">
            <stop offset="0%" stop-color="#fff"/>
            <stop offset="100%" stop-color="#d4af37"/>
        </linearGradient>
    </defs>
    <rect width="480" height="120" rx="20" fill="url(#bg)"/>
    <g transform="translate(20, 28)">
        <rect width="64" height="64" rx="14" fill="#161922" stroke="#1f2330" stroke-width="0.5"/>
        <path d="M20 50 L25 38 C26.5 34.5 29 33 32.5 33 L47.5 33 C51 33 53.5 34.5 55 38 L60 50 L60 58 C60 59 59 60 58 60 L54.5 60 C53.5 60 52.5 59 52.5 58 L52.5 55.5 L27.5 55.5 L27.5 58 C27.5 59 26.5 60 25.5 60 L22 60 C21 60 20 59 20 58 Z"
              fill="url(#gold)" stroke="#7a5e15" stroke-width="0.6"/>
        <circle cx="30" cy="55" r="3.2" fill="#0a0c14"/>
        <circle cx="50" cy="55" r="3.2" fill="#0a0c14"/>
    </g>
    <text x="110" y="58" font-family="Playfair Display, Georgia, serif" font-size="38" font-weight="700"
          fill="url(#text)" letter-spacing="-0.5">Bruktbiler</text>
    <text x="111" y="84" font-family="Inter, sans-serif" font-size="11" fill="#9ea2b3"
          letter-spacing="6" text-transform="uppercase">PREMIUM · KONSIGNASJON · AUKSJON</text>
</svg>
