<svg xmlns="http://www.w3.org/2000/svg" viewBox="0 0 64 64" width="64" height="64">
    <defs>
        <linearGradient id="g" x1="0" y1="0" x2="0" y2="1">
            <stop offset="0%" stop-color="#0e1018"/>
            <stop offset="100%" stop-color="#07070d"/>
        </linearGradient>
        <linearGradient id="gold" x1="0" y1="0" x2="0" y2="1">
            <stop offset="0%" stop-color="#e6c659"/>
            <stop offset="100%" stop-color="#d4af37"/>
        </linearGradient>
    </defs>
    <rect width="64" height="64" rx="14" fill="url(#g)"/>
    <path d="M14 36 L18 26 C19 23 21 22 24 22 L40 22 C43 22 45 23 46 26 L50 36 L50 44 C50 45 49 46 48 46 L45 46 C44 46 43 45 43 44 L43 42 L21 42 L21 44 C21 45 20 46 19 46 L16 46 C15 46 14 45 14 44 Z"
          fill="url(#gold)" stroke="#c9a432" stroke-width="0.5"/>
    <circle cx="22" cy="42" r="3" fill="#0e1018"/>
    <circle cx="42" cy="42" r="3" fill="#0e1018"/>
</svg>
