<svg xmlns="http://www.w3.org/2000/svg" viewBox="0 0 64 64" width="64" height="64">
    <defs>
        <linearGradient id="bg" x1="0" y1="0" x2="1" y2="1">
            <stop offset="0%" stop-color="#161922"/>
            <stop offset="100%" stop-color="#07070d"/>
        </linearGradient>
        <linearGradient id="gold" x1="0" y1="0" x2="0" y2="1">
            <stop offset="0%" stop-color="#f4d96e"/>
            <stop offset="50%" stop-color="#d4af37"/>
            <stop offset="100%" stop-color="#a07d1f"/>
        </linearGradient>
        <linearGradient id="shine" x1="0" y1="0" x2="0" y2="1">
            <stop offset="0%" stop-color="#fff8d8" stop-opacity="0.5"/>
            <stop offset="60%" stop-color="#fff8d8" stop-opacity="0"/>
        </linearGradient>
    </defs>
    <rect width="64" height="64" rx="14" fill="url(#bg)"/>
    <path d="M8 50 Q32 46 56 50 L52 56 Q32 53 12 56 Z" fill="#1a1d28" opacity="0.6"/>
    <path d="M12 38 L17 26 C18.5 22.5 21 21 24.5 21 L39.5 21 C43 21 45.5 22.5 47 26 L52 38 L52 46 C52 47 51 48 50 48 L46.5 48 C45.5 48 44.5 47 44.5 46 L44.5 43.5 L19.5 43.5 L19.5 46 C19.5 47 18.5 48 17.5 48 L14 48 C13 48 12 47 12 46 Z"
          fill="url(#gold)" stroke="#7a5e15" stroke-width="0.6"/>
    <path d="M19 27 L21 33 L43 33 L45 27 C44 25.5 42.5 25 40.5 25 L23.5 25 C21.5 25 20 25.5 19 27 Z"
          fill="url(#shine)" opacity="0.7"/>
    <circle cx="22" cy="43" r="3.6" fill="#0a0c14"/>
    <circle cx="22" cy="43" r="2" fill="#3a3a45"/>
    <circle cx="42" cy="43" r="3.6" fill="#0a0c14"/>
    <circle cx="42" cy="43" r="2" fill="#3a3a45"/>
    <circle cx="32" cy="36" r="1" fill="#fff" opacity="0.4"/>
</svg>
